<svg width="220" height="48" viewBox="0 0 220 48" fill="none" xmlns="http://www.w3.org/2000/svg">
<g clip-path="url(#clip0_20_481)">
<g clip-path="url(#clip1_20_481)">
<path d="M75.8443 25.2043C76.3569 23 78.0041 22.0402 79.8974 22.0402C81.7906 22.0402 83.6463 22.9932 83.8958 25.2043H75.8443ZM86.4349 32.1701L86.7049 29.1363C82.2554 31.5805 76.7602 31.9233 75.9263 27.6451H87.1629V26.291C87.0262 21.6837 83.5165 19.4074 79.8974 19.4074C76.1963 19.4074 72.5772 21.7659 72.5772 26.5618C72.5772 33.8225 80.3553 35.3103 86.4349 32.1701Z" fill="#191816"/>
<path d="M59.4987 25.2043C60.0113 23 61.6585 22.0402 63.5518 22.0402C65.4416 22.0402 67.3007 22.9932 67.5502 25.2043H59.4987ZM70.0859 32.1701L70.3559 29.1363C65.9064 31.5805 60.4112 31.9233 59.5773 27.6451H70.8138V26.291C70.6771 21.6837 67.1674 19.4074 63.5484 19.4074C59.8473 19.4074 56.2282 21.7659 56.2282 26.5618C56.2282 33.8225 64.0097 35.3103 70.0859 32.1701Z" fill="#191816"/>
<path d="M92.6718 13.7717H89.5653V33.3357H92.6718V27.3194C93.861 27.3194 94.7803 27.3194 95.7235 28.1867C97.0461 29.5408 98.0201 31.2754 98.912 33.3357H102.476C101.612 30.5727 98.8847 26.2636 95.9935 26.2636V25.8556C98.3721 25.8556 101.287 22.1156 102.07 19.7879H98.8027C98.0474 21.4129 97.0461 22.904 95.6689 24.1244C94.7496 24.9917 93.6423 24.9643 92.6718 24.9643V13.7717Z" fill="#191816"/>
<path d="M108.402 22.7395V17.7002H112.995C115.452 17.7002 116.399 18.948 116.399 20.2199C116.399 21.4677 115.452 22.7395 112.995 22.7395H108.402ZM108.402 30.487V25.4477H113.751C116.208 25.4477 117.154 26.6955 117.154 27.9673C117.154 29.2151 116.156 30.487 113.696 30.487H108.402ZM113.669 14.8549H105.159V33.3323H114.478C118.449 33.3323 120.449 31.0834 120.449 28.3753C120.449 25.9893 118.719 24.2856 115.777 24.0936V23.6617C118.586 23.1474 119.639 21.3854 119.639 19.5445C119.639 17.0489 117.694 14.8549 113.669 14.8549Z" fill="#191816"/>
<path d="M122.837 19.7845V33.3323H125.944V24.2307C127.106 23.0652 128.616 22.6607 131.077 22.6607H132.321L132.078 19.5446H131.08C129.026 19.5446 127.082 20.4393 126.327 22.3076H125.947V19.7845H122.837Z" fill="#191816"/>
<path d="M136.107 26.5584C136.107 23.5794 137.792 22.0607 140.061 22.0607C141.897 22.0607 143.178 22.6298 144.313 23.7953V29.3214C143.178 30.487 141.897 31.056 140.061 31.056C137.796 31.056 136.107 29.5408 136.107 26.5584ZM144.316 19.7845V21.7625H143.964C142.747 20.165 141.333 19.3525 139.251 19.3525C135.01 19.3525 132.892 22.7943 132.892 26.5584C132.892 30.3224 135.01 33.7642 139.251 33.7642C141.333 33.7642 142.747 32.9518 143.964 31.3543H144.316V33.3323H147.423V19.7845H144.316Z" fill="#191816"/>
<path d="M151.161 33.3323H154.268V19.7845H151.161V33.3323ZM152.73 18.0533C154.025 18.0533 154.89 17.186 154.89 15.8868C154.89 14.5875 154.025 13.7202 152.73 13.7202C151.435 13.7202 150.57 14.5875 150.57 15.8868C150.567 17.186 151.431 18.0533 152.73 18.0533Z" fill="#191816"/>
<path d="M161.116 19.7845H158.01V33.3323H161.116V23.7953C162.251 22.6846 163.505 22.0607 165.015 22.0607C166.663 22.0607 168.214 22.9829 168.214 25.7459V33.3323H171.321V25.0432C171.321 21.5465 169.687 19.3525 166.314 19.3525C164.479 19.3525 162.63 20.1376 161.414 21.8722H161.116V19.7845Z" fill="#191816"/>
<path d="M173.928 23.7165C173.928 26.1264 176.17 27.076 177.899 27.4565L181.87 28.2964C183.165 28.5672 183.76 28.9478 183.76 29.5957C183.76 30.5727 182.41 31.032 180.438 31.032C178.115 31.032 175.442 30.1373 173.955 29.3248L174.225 32.3861C175.955 33.2808 178.197 33.7676 180.274 33.7676C184.136 33.7676 187 32.4958 187 29.4585C187 26.9937 184.946 26.0716 182.543 25.5574L178.924 24.7998C177.79 24.5564 177.168 24.1759 177.168 23.528C177.168 22.6058 178.384 22.119 180.329 22.119C182.516 22.119 184.867 22.9315 186.108 23.6102L185.838 20.5489C184.351 19.7913 182.434 19.356 180.49 19.356C176.956 19.3525 173.928 20.6004 173.928 23.7165Z" fill="#191816"/>
<path d="M44.9199 23.1269V26.099H50.6817V29.4277C49.1268 30.3293 47.5206 30.7406 45.993 30.7406C42.3398 30.7406 39.018 28.3616 39.018 24.1244C39.018 19.8873 42.3432 17.5082 45.993 17.5082C48.3374 17.5082 50.8321 18.4578 53.0944 20.3707L52.7595 16.5895C50.5724 15.1531 48.1665 14.4744 45.6273 14.4744C40.549 14.4744 35.5801 17.8887 35.5801 24.121C35.5801 30.3533 40.549 33.7676 45.6273 33.7676C48.1665 33.7676 50.815 33.1986 53.8121 30.9772V23.1269H44.9199Z" fill="#191816"/>
<path d="M11.4082 14.1921L11.1891 12.2032C8.24861 11.3029 5.11297 13.5383 3.20625 16.0714C2.11767 17.5434 1.21737 19.1762 2.14506 20.6482C0.618314 22.0654 0.618314 25.1976 2.14506 26.6422C1.21737 28.1142 2.11767 29.7471 3.20625 31.219C5.06162 33.67 7.43047 35.279 9.88147 35.279C12.4146 35.279 14.4583 33.1805 14.4583 30.62V28.6859C14.4583 27.3782 13.9688 26.6422 13.0137 25.6358L11.5691 24.0817C11.5965 23.9448 11.5965 23.8352 11.5965 23.7017C11.5965 22.6405 10.8331 21.8771 9.77193 21.8771C8.76551 21.8771 7.97475 22.6405 7.97475 23.7017C7.97475 24.6568 8.76551 25.4441 9.77193 25.4441C9.90886 25.4441 10.0184 25.4167 10.0971 25.4167L11.5965 26.9982C12.1682 27.6247 12.442 28.0868 12.442 28.8502V30.62C12.442 32.8279 10.6448 33.7522 8.65597 33.0162C7.32092 32.5267 5.95849 31.5169 4.70561 29.884C3.58964 28.3299 3.83269 27.5973 4.45914 27.1591C5.00342 26.8339 5.5751 26.8853 6.55755 28.1142C6.5062 28.2751 6.47882 28.4668 6.47882 28.6585C6.47882 29.6649 7.29696 30.4831 8.27599 30.4831C9.25503 30.4831 10.0458 29.6649 10.0458 28.6585C10.0458 27.6795 9.25503 26.8613 8.27599 26.8613H8.13907C6.96834 25.362 5.55113 24.3282 3.58964 25.362C2.88104 24.7355 2.99059 22.5002 3.58964 21.9285C5.55113 22.9623 6.96834 21.9285 8.13907 20.4291H8.27599C9.25503 20.4291 10.0458 19.611 10.0458 18.632C10.0458 17.6256 9.25503 16.8074 8.27599 16.8074C7.29696 16.8074 6.47882 17.6256 6.47882 18.632C6.47882 18.8237 6.5062 19.0119 6.56097 19.1763C5.58194 20.4018 5.00685 20.4565 4.46256 20.1313C3.83611 19.6966 3.58964 18.9606 4.70903 17.4065C6.25973 15.3902 8.92982 13.1857 11.4082 14.1921ZM14.5918 33.0984L14.8109 35.0873C17.7514 35.9876 20.887 33.7522 22.7938 31.219C23.8823 29.7471 24.7826 28.1142 23.8549 26.6422C25.3817 25.225 25.3817 22.0928 23.8549 20.6482C24.7826 19.1762 23.8823 17.5434 22.7938 16.0714C20.9384 13.6204 18.5695 12.0149 16.1185 12.0149C13.5854 12.0149 11.5417 14.1134 11.5417 16.6739V18.608C11.5417 19.9157 12.0312 20.6516 12.9863 21.6581L14.4309 23.2122C14.4035 23.3491 14.4035 23.4587 14.4035 23.5922C14.4035 24.6534 15.1669 25.4167 16.2281 25.4167C17.2345 25.4167 18.0252 24.6534 18.0252 23.5922C18.0252 22.6371 17.2345 21.8498 16.2281 21.8498C16.0911 21.8498 15.9816 21.8771 15.9029 21.8771L14.4035 20.2956C13.8318 19.6692 13.558 19.2071 13.558 18.4437V16.6739C13.558 14.4659 15.3552 13.5417 17.344 14.2777C18.6791 14.7672 20.0415 15.777 21.2944 17.4099C22.4104 18.964 22.1673 19.6966 21.5409 20.1348C20.9966 20.46 20.4249 20.4086 19.4424 19.1797C19.4972 19.0154 19.5246 18.8271 19.5246 18.6354C19.5246 17.629 18.7065 16.8108 17.7274 16.8108C16.7484 16.8108 15.9576 17.629 15.9576 18.6354C15.9576 19.6144 16.7484 20.4326 17.7274 20.4326H17.8644C19.0351 21.9319 20.4523 22.9657 22.4138 21.9319C23.1224 22.5584 23.0128 24.7937 22.4138 25.3654C20.4523 24.3316 19.0351 25.3654 17.8644 26.8647H17.7274C16.7484 26.8647 15.9576 27.6829 15.9576 28.6619C15.9576 29.6683 16.7484 30.4865 17.7274 30.4865C18.7065 30.4865 19.5246 29.6683 19.5246 28.6619C19.5246 28.4702 19.4972 28.2819 19.4424 28.1176C20.4215 26.8921 20.9966 26.8374 21.5409 27.1626C22.1673 27.5973 22.4138 28.3333 21.2944 29.8874C19.7403 31.9003 17.0702 34.1048 14.5918 33.0984Z" fill="#191816"/>
</g>
</g>
<defs>
<clipPath id="clip0_20_481">
<rect width="186" height="24" fill="white" transform="translate(1 12)"/>
</clipPath>
<clipPath id="clip1_20_481">
<rect width="186" height="24" fill="white" transform="translate(1 12)"/>
</clipPath>
</defs>
</svg>
